<?xml version="1.0" encoding="UTF-8"?>
<svg id="Beeldmerk" data-name="Beeldmerk" xmlns="http://www.w3.org/2000/svg" viewBox="0 0 81.92 83.7">

    <g>
      <rect x="30.85" y=".2" width="51.08" height="83.36" style="fill: #32b6e6;"/>
      <path d="m4.39,23.65h8.86v4.9c2.02-3.82,6.05-5.76,10.95-5.76,5.26,0,9.79,2.45,12.1,6.34,2.66-4.25,6.98-6.34,12.17-6.34,8.28,0,14.47,6.05,14.47,14.83v25.2h-9.43v-22.97c0-5.18-2.95-8.42-7.56-8.42s-7.56,3.31-7.56,8.42v22.97h-9.43v-22.97c0-5.18-2.95-8.42-7.56-8.42s-7.56,3.31-7.56,8.42v22.97H4.39V23.65Z"/>
    </g>

</svg>
