<?xml version="1.0" encoding="UTF-8"?>
<svg id="A" data-name="A" xmlns="http://www.w3.org/2000/svg" viewBox="0 0 62.78 83.7">
    <g>
      <rect x="11.7" y=".2" width="51.08" height="83.36" style="fill: #7acdeb;"/>
      <path d="m2.81,52.45c0-6.48,4.32-11.02,13.54-12.53l11.67-1.87v-1.3c0-3.38-2.88-5.9-7.2-5.9s-7.34,2.38-8.78,5.9l-7.7-3.74c2.3-6.12,9-10.23,16.85-10.23,9.58,0,16.27,5.76,16.27,13.97v26.07h-8.93v-4.18c-3.02,3.31-7.06,5.04-12.24,5.04-8.21,0-13.47-4.32-13.47-11.23Zm15.19,4.03c5.98,0,10.01-4.25,10.01-9.65v-1.58l-9.86,1.66c-3.74.72-5.54,2.38-5.54,5.18s2.23,4.39,5.4,4.39Z"/>
    </g>
</svg>
