<?xml version="1.0" encoding="UTF-8"?>
<svg id="E" data-name="E" xmlns="http://www.w3.org/2000/svg" viewBox="0 0 63 83.7">
    <g>
      <rect x="11.92" y=".2" width="51.08" height="83.36" style="fill: #7acdeb;"/>
      <path d="m2.81,43.16c0-11.74,8.42-20.38,19.44-20.38,12.17,0,19.08,8.71,19.08,19.15,0,1.44-.14,2.88-.5,3.96H12.6c.58,5.76,4.75,9.5,10.44,9.5,4.32,0,7.34-2.02,9.07-5.04l7.63,3.74c-2.38,5.62-8.79,9.58-16.78,9.58-12.03,0-20.16-9.07-20.16-20.52Zm10.01-4.46h18.43c-.43-4.82-4.03-8.14-9-8.14s-8.35,2.95-9.43,8.14Z"/>
    </g>
</svg>
