<?xml version="1.0" encoding="UTF-8"?>
<svg id="G" data-name="G" xmlns="http://www.w3.org/2000/svg" viewBox="0 0 64 83.7">
    <g>
      <rect x="12.92" y=".2" width="51.08" height="83.36" style="fill: #7acdeb;"/>
      <path d="m4.9,67.21l8.78-3.31c1.15,3.67,4.75,6.12,9.72,6.12,5.69,0,9.72-3.38,9.72-9.14v-4.25c-2.74,3.02-6.62,4.61-11.31,4.61-11.02,0-19.01-8.28-19.01-19.3s7.92-19.15,18.79-19.15c5.04,0,9.07,1.8,12.03,5.4v-4.54h8.93v37.23c0,10.3-7.99,17.79-19.15,17.79-8.86,0-15.99-4.54-18.5-11.45Zm28.23-25.2c0-6.12-4.25-10.58-10.15-10.58s-10.37,4.54-10.37,10.58,4.32,10.51,10.37,10.51,10.15-4.39,10.15-10.51Z"/>
    </g>
</svg>
